<?xml version="1.0" encoding="UTF-8"?>
<svg xmlns="http://www.w3.org/2000/svg" xmlns:xlink="http://www.w3.org/1999/xlink" width="3000" height="3000" viewBox="0 0 3000 3000">
<defs>
<clipPath id="clip-0">
<path clip-rule="nonzero" d="M 300 300 L 2700 300 L 2700 2700 L 300 2700 Z M 300 300 "/>
</clipPath>
<clipPath id="clip-1">
<path clip-rule="nonzero" d="M 1500 2700 C 837.257812 2700 300 2162.738281 300 1500 C 300 837.261719 837.257812 300 1500 300 C 2162.738281 300 2700 837.261719 2700 1500 C 2700 2162.738281 2162.738281 2700 1500 2700 M 1238.789062 1861.941406 L 1238.75 1861.980469 L 1231.828125 1944.320312 L 1224.910156 2026.648438 L 1500 2346.53125 L 1775.089844 2026.648438 L 1774.820312 2023.480469 L 1775.089844 2026.648438 L 1833.789062 1958.390625 L 1768.171875 1944.320312 L 1761.25 1861.980469 L 1761.210938 1861.941406 L 1756.238281 1867.089844 L 1740.730469 1882.328125 L 1724.800781 1897.160156 L 1708.488281 1911.558594 L 1691.820312 1925.519531 L 1674.820312 1939.039062 L 1657.488281 1952.109375 C 1610.640625 1986.539062 1555.320312 2003.75 1500 2003.75 C 1444.679688 2003.75 1389.359375 1986.539062 1342.511719 1952.109375 L 1325.179688 1939.039062 L 1308.179688 1925.519531 L 1291.511719 1911.558594 L 1275.199219 1897.160156 L 1259.269531 1882.328125 L 1243.761719 1867.089844 L 1238.789062 1861.941406 M 1097.75 1056.460938 L 1099.761719 1061.578125 C 1103.890625 1072.121094 1106.378906 1083.230469 1107.148438 1094.519531 L 1107.410156 1098.890625 L 1107.589844 1103.25 L 1107.699219 1107.601562 L 1107.710938 1111.941406 L 1107.648438 1116.28125 L 1107.5 1120.589844 L 1107.261719 1124.898438 L 1106.929688 1129.179688 L 1106.511719 1133.449219 L 1105.988281 1137.691406 L 1105.390625 1141.921875 L 1104.679688 1146.121094 L 1103.878906 1150.289062 L 1102.96875 1154.441406 L 1101.96875 1158.558594 L 1100.859375 1162.648438 L 1099.828125 1166.121094 L 1098.71875 1169.570312 L 1097.550781 1172.988281 L 1096.308594 1176.398438 L 1093.648438 1183.160156 L 1090.789062 1189.859375 L 1087.75 1196.511719 L 1084.570312 1203.121094 L 1061.148438 1249.171875 L 1058.039062 1255.851562 L 1055.089844 1262.578125 L 1052.339844 1269.390625 L 1050.019531 1275.671875 L 1047.878906 1282.019531 L 1045.921875 1288.429688 L 1044.140625 1294.890625 L 1042.539062 1301.398438 L 1041.101562 1307.96875 L 1039.828125 1314.570312 L 1038.71875 1321.21875 L 1037.761719 1327.898438 L 1036.960938 1334.621094 L 1036.300781 1341.371094 L 1035.789062 1348.148438 L 1035.421875 1354.949219 L 1035.179688 1361.761719 L 1035.070312 1368.601562 L 1035.089844 1375.441406 L 1035.488281 1389.160156 L 1036.351562 1402.878906 L 1037.628906 1416.570312 L 1039.300781 1430.210938 L 1041.328125 1443.78125 L 1043.671875 1457.230469 L 1046.300781 1470.550781 L 1049.191406 1483.691406 L 1054.160156 1510.828125 L 1060.058594 1537.828125 L 1063.371094 1551.25 L 1066.910156 1564.621094 L 1067.078125 1565.210938 L 1070.710938 1577.921875 L 1074.75 1591.148438 L 1079.039062 1604.289062 L 1083.589844 1617.359375 L 1088.398438 1630.328125 L 1093.46875 1643.199219 L 1098.808594 1655.960938 L 1104.421875 1668.621094 L 1110.300781 1681.140625 L 1116.460938 1693.550781 L 1126.550781 1712.5 L 1137.300781 1731.121094 L 1148.671875 1749.398438 L 1160.640625 1767.328125 L 1173.191406 1784.898438 L 1186.289062 1802.101562 L 1199.921875 1818.929688 L 1214.058594 1835.378906 L 1228.679688 1851.441406 L 1238.789062 1861.941406 L 1243.761719 1867.089844 L 1259.269531 1882.328125 L 1275.199219 1897.160156 L 1291.511719 1911.558594 L 1308.179688 1925.519531 L 1325.179688 1939.039062 L 1342.511719 1952.109375 C 1389.359375 1986.539062 1444.679688 2003.75 1500 2003.75 C 1555.320312 2003.75 1610.640625 1986.539062 1657.488281 1952.109375 L 1674.820312 1939.039062 L 1691.820312 1925.519531 L 1708.488281 1911.558594 L 1724.800781 1897.160156 L 1740.730469 1882.328125 L 1756.238281 1867.089844 L 1761.210938 1861.941406 L 1771.320312 1851.441406 L 1785.941406 1835.378906 L 1800.078125 1818.929688 L 1813.710938 1802.101562 L 1826.808594 1784.898438 L 1839.359375 1767.328125 L 1851.328125 1749.398438 L 1862.699219 1731.121094 L 1873.449219 1712.5 L 1883.539062 1693.550781 L 1889.699219 1681.140625 L 1895.578125 1668.621094 L 1901.191406 1655.960938 L 1906.53125 1643.199219 L 1911.601562 1630.328125 L 1916.410156 1617.359375 L 1920.960938 1604.289062 L 1925.25 1591.148438 L 1929.289062 1577.921875 L 1932.921875 1565.210938 L 1933.089844 1564.621094 L 1936.628906 1551.25 L 1939.941406 1537.828125 L 1945.839844 1510.828125 L 1950.808594 1483.691406 L 1953.699219 1470.550781 L 1956.328125 1457.230469 L 1958.671875 1443.78125 L 1960.699219 1430.210938 L 1962.371094 1416.570312 L 1963.648438 1402.878906 L 1964.511719 1389.160156 L 1964.910156 1375.441406 L 1964.929688 1368.601562 L 1964.820312 1361.761719 L 1964.578125 1354.949219 L 1964.210938 1348.148438 L 1963.699219 1341.371094 L 1963.039062 1334.621094 L 1962.238281 1327.898438 L 1961.28125 1321.21875 L 1960.171875 1314.570312 L 1958.898438 1307.96875 L 1957.460938 1301.398438 L 1955.859375 1294.890625 L 1954.078125 1288.429688 L 1952.121094 1282.019531 L 1949.980469 1275.671875 L 1947.660156 1269.390625 L 1944.910156 1262.578125 L 1941.960938 1255.851562 L 1938.851562 1249.171875 L 1915.429688 1203.121094 L 1912.25 1196.511719 L 1909.210938 1189.859375 L 1906.351562 1183.160156 L 1903.691406 1176.398438 L 1902.449219 1172.988281 L 1901.28125 1169.570312 L 1900.171875 1166.121094 L 1899.140625 1162.648438 L 1898.03125 1158.558594 L 1897.03125 1154.441406 L 1896.121094 1150.289062 L 1895.320312 1146.121094 L 1894.609375 1141.921875 L 1894.011719 1137.691406 L 1893.488281 1133.449219 L 1893.070312 1129.179688 L 1892.738281 1124.898438 L 1892.5 1120.589844 L 1892.351562 1116.28125 L 1892.289062 1111.941406 L 1892.300781 1107.601562 L 1892.410156 1103.25 L 1892.589844 1098.890625 L 1892.851562 1094.519531 C 1893.621094 1083.230469 1896.109375 1072.121094 1900.238281 1061.578125 L 1902.25 1056.460938 L 1892.351562 1064.761719 L 1882.210938 1072.75 L 1871.851562 1080.429688 L 1861.28125 1087.78125 L 1850.5 1094.800781 L 1839.539062 1101.488281 L 1828.390625 1107.851562 L 1817.078125 1113.859375 L 1805.609375 1119.53125 L 1794 1124.839844 L 1782.25 1129.800781 L 1770.378906 1134.390625 L 1758.398438 1138.621094 L 1746.320312 1142.480469 L 1734.148438 1145.960938 L 1721.910156 1149.058594 L 1713.828125 1150.890625 L 1705.71875 1152.550781 L 1697.589844 1154.050781 L 1689.441406 1155.398438 L 1681.261719 1156.589844 L 1673.058594 1157.628906 L 1664.828125 1158.519531 L 1656.589844 1159.261719 L 1640.058594 1160.328125 L 1623.460938 1160.851562 L 1606.820312 1160.851562 L 1590.128906 1160.351562 C 1421.421875 1152.921875 1255.078125 1117.820312 1097.75 1056.460938 "/>
</clipPath>
<clipPath id="clip-2">
<path clip-rule="nonzero" d="M 1500 2700 C 837.257812 2700 300 2162.738281 300 1500 C 300 837.261719 837.257812 300 1500 300 C 2162.738281 300 2700 837.261719 2700 1500 C 2700 2162.738281 2162.738281 2700 1500 2700 M 1238.789062 1861.941406 L 1238.75 1861.980469 L 1231.828125 1944.320312 L 1224.910156 2026.648438 L 1500 2346.53125 L 1775.089844 2026.648438 L 1774.820312 2023.480469 L 1775.089844 2026.648438 L 1833.789062 1958.390625 L 1768.171875 1944.320312 L 1761.25 1861.980469 L 1761.210938 1861.941406 L 1756.238281 1867.089844 L 1740.730469 1882.328125 L 1724.800781 1897.160156 L 1708.488281 1911.558594 L 1691.820312 1925.519531 L 1674.820312 1939.039062 L 1657.488281 1952.109375 C 1610.640625 1986.539062 1555.320312 2003.75 1500 2003.75 C 1444.679688 2003.75 1389.359375 1986.539062 1342.511719 1952.109375 L 1325.179688 1939.039062 L 1308.179688 1925.519531 L 1291.511719 1911.558594 L 1275.199219 1897.160156 L 1259.269531 1882.328125 L 1243.761719 1867.089844 L 1238.789062 1861.941406 M 1097.75 1056.460938 L 1099.761719 1061.578125 C 1103.890625 1072.121094 1106.378906 1083.230469 1107.148438 1094.519531 L 1107.410156 1098.890625 L 1107.589844 1103.25 L 1107.699219 1107.601562 L 1107.710938 1111.941406 L 1107.648438 1116.28125 L 1107.5 1120.589844 L 1107.261719 1124.898438 L 1106.929688 1129.179688 L 1106.511719 1133.449219 L 1105.988281 1137.691406 L 1105.390625 1141.921875 L 1104.679688 1146.121094 L 1103.878906 1150.289062 L 1102.96875 1154.441406 L 1101.96875 1158.558594 L 1100.859375 1162.648438 L 1099.828125 1166.121094 L 1098.71875 1169.570312 L 1097.550781 1172.988281 L 1096.308594 1176.398438 L 1093.648438 1183.160156 L 1090.789062 1189.859375 L 1087.75 1196.511719 L 1084.570312 1203.121094 L 1061.148438 1249.171875 L 1058.039062 1255.851562 L 1055.089844 1262.578125 L 1052.339844 1269.390625 L 1050.019531 1275.671875 L 1047.878906 1282.019531 L 1045.921875 1288.429688 L 1044.140625 1294.890625 L 1042.539062 1301.398438 L 1041.101562 1307.96875 L 1039.828125 1314.570312 L 1038.71875 1321.21875 L 1037.761719 1327.898438 L 1036.960938 1334.621094 L 1036.300781 1341.371094 L 1035.789062 1348.148438 L 1035.421875 1354.949219 L 1035.179688 1361.761719 L 1035.070312 1368.601562 L 1035.089844 1375.441406 L 1035.488281 1389.160156 L 1036.351562 1402.878906 L 1037.628906 1416.570312 L 1039.300781 1430.210938 L 1041.328125 1443.78125 L 1043.671875 1457.230469 L 1046.300781 1470.550781 L 1049.191406 1483.691406 L 1054.160156 1510.828125 L 1060.058594 1537.828125 L 1063.371094 1551.25 L 1066.910156 1564.621094 L 1067.078125 1565.210938 L 1070.710938 1577.921875 L 1074.75 1591.148438 L 1079.039062 1604.289062 L 1083.589844 1617.359375 L 1088.398438 1630.328125 L 1093.46875 1643.199219 L 1098.808594 1655.960938 L 1104.421875 1668.621094 L 1110.300781 1681.140625 L 1116.460938 1693.550781 L 1126.550781 1712.5 L 1137.300781 1731.121094 L 1148.671875 1749.398438 L 1160.640625 1767.328125 L 1173.191406 1784.898438 L 1186.289062 1802.101562 L 1199.921875 1818.929688 L 1214.058594 1835.378906 L 1228.679688 1851.441406 L 1238.789062 1861.941406 L 1243.761719 1867.089844 L 1259.269531 1882.328125 L 1275.199219 1897.160156 L 1291.511719 1911.558594 L 1308.179688 1925.519531 L 1325.179688 1939.039062 L 1342.511719 1952.109375 C 1389.359375 1986.539062 1444.679688 2003.75 1500 2003.75 C 1555.320312 2003.75 1610.640625 1986.539062 1657.488281 1952.109375 L 1674.820312 1939.039062 L 1691.820312 1925.519531 L 1708.488281 1911.558594 L 1724.800781 1897.160156 L 1740.730469 1882.328125 L 1756.238281 1867.089844 L 1761.210938 1861.941406 L 1771.320312 1851.441406 L 1785.941406 1835.378906 L 1800.078125 1818.929688 L 1813.710938 1802.101562 L 1826.808594 1784.898438 L 1839.359375 1767.328125 L 1851.328125 1749.398438 L 1862.699219 1731.121094 L 1873.449219 1712.5 L 1883.539062 1693.550781 L 1889.699219 1681.140625 L 1895.578125 1668.621094 L 1901.191406 1655.960938 L 1906.53125 1643.199219 L 1911.601562 1630.328125 L 1916.410156 1617.359375 L 1920.960938 1604.289062 L 1925.25 1591.148438 L 1929.289062 1577.921875 L 1932.921875 1565.210938 L 1933.089844 1564.621094 L 1936.628906 1551.25 L 1939.941406 1537.828125 L 1945.839844 1510.828125 L 1950.808594 1483.691406 L 1953.699219 1470.550781 L 1956.328125 1457.230469 L 1958.671875 1443.78125 L 1960.699219 1430.210938 L 1962.371094 1416.570312 L 1963.648438 1402.878906 L 1964.511719 1389.160156 L 1964.910156 1375.441406 L 1964.929688 1368.601562 L 1964.820312 1361.761719 L 1964.578125 1354.949219 L 1964.210938 1348.148438 L 1963.699219 1341.371094 L 1963.039062 1334.621094 L 1962.238281 1327.898438 L 1961.28125 1321.21875 L 1960.171875 1314.570312 L 1958.898438 1307.96875 L 1957.460938 1301.398438 L 1955.859375 1294.890625 L 1954.078125 1288.429688 L 1952.121094 1282.019531 L 1949.980469 1275.671875 L 1947.660156 1269.390625 L 1944.910156 1262.578125 L 1941.960938 1255.851562 L 1938.851562 1249.171875 L 1915.429688 1203.121094 L 1912.25 1196.511719 L 1909.210938 1189.859375 L 1906.351562 1183.160156 L 1903.691406 1176.398438 L 1902.449219 1172.988281 L 1901.28125 1169.570312 L 1900.171875 1166.121094 L 1899.140625 1162.648438 L 1898.03125 1158.558594 L 1897.03125 1154.441406 L 1896.121094 1150.289062 L 1895.320312 1146.121094 L 1894.609375 1141.921875 L 1894.011719 1137.691406 L 1893.488281 1133.449219 L 1893.070312 1129.179688 L 1892.738281 1124.898438 L 1892.5 1120.589844 L 1892.351562 1116.28125 L 1892.289062 1111.941406 L 1892.300781 1107.601562 L 1892.410156 1103.25 L 1892.589844 1098.890625 L 1892.851562 1094.519531 C 1893.621094 1083.230469 1896.109375 1072.121094 1900.238281 1061.578125 L 1902.25 1056.460938 L 1892.351562 1064.761719 L 1882.210938 1072.75 L 1871.851562 1080.429688 L 1861.28125 1087.78125 L 1850.5 1094.800781 L 1839.539062 1101.488281 L 1828.390625 1107.851562 L 1817.078125 1113.859375 L 1805.609375 1119.53125 L 1794 1124.839844 L 1782.25 1129.800781 L 1770.378906 1134.390625 L 1758.398438 1138.621094 L 1746.320312 1142.480469 L 1734.148438 1145.960938 L 1721.910156 1149.058594 L 1713.828125 1150.890625 L 1705.71875 1152.550781 L 1697.589844 1154.050781 L 1689.441406 1155.398438 L 1681.261719 1156.589844 L 1673.058594 1157.628906 L 1664.828125 1158.519531 L 1656.589844 1159.261719 L 1640.058594 1160.328125 L 1623.460938 1160.851562 L 1606.820312 1160.851562 L 1590.128906 1160.351562 C 1421.421875 1152.921875 1255.078125 1117.820312 1097.75 1056.460938 "/>
</clipPath>
<linearGradient id="linear-pattern-0" gradientUnits="userSpaceOnUse" x1="-0.0000000218556" y1="0" x2="1" y2="0" gradientTransform="matrix(-0.000104907, -2400, 2400, -0.000104907, 1500, 2700)">
<stop offset="0" stop-color="rgb(10.588074%, 45.881653%, 73.332214%)" stop-opacity="1"/>
<stop offset="0.0078125" stop-color="rgb(10.762024%, 46.009827%, 73.435974%)" stop-opacity="1"/>
<stop offset="0.015625" stop-color="rgb(11.109924%, 46.2677%, 73.64502%)" stop-opacity="1"/>
<stop offset="0.0234375" stop-color="rgb(11.459351%, 46.524048%, 73.852539%)" stop-opacity="1"/>
<stop offset="0.03125" stop-color="rgb(11.808777%, 46.781921%, 74.061584%)" stop-opacity="1"/>
<stop offset="0.0390625" stop-color="rgb(12.158203%, 47.039795%, 74.269104%)" stop-opacity="1"/>
<stop offset="0.046875" stop-color="rgb(12.507629%, 47.296143%, 74.478149%)" stop-opacity="1"/>
<stop offset="0.0546875" stop-color="rgb(12.857056%, 47.554016%, 74.685669%)" stop-opacity="1"/>
<stop offset="0.0625" stop-color="rgb(13.206482%, 47.81189%, 74.894714%)" stop-opacity="1"/>
<stop offset="0.0703125" stop-color="rgb(13.555908%, 48.068237%, 75.102234%)" stop-opacity="1"/>
<stop offset="0.078125" stop-color="rgb(13.905334%, 48.326111%, 75.311279%)" stop-opacity="1"/>
<stop offset="0.0859375" stop-color="rgb(14.254761%, 48.583984%, 75.520325%)" stop-opacity="1"/>
<stop offset="0.09375" stop-color="rgb(14.602661%, 48.840332%, 75.727844%)" stop-opacity="1"/>
<stop offset="0.101562" stop-color="rgb(14.952087%, 49.098206%, 75.93689%)" stop-opacity="1"/>
<stop offset="0.109375" stop-color="rgb(15.301514%, 49.356079%, 76.144409%)" stop-opacity="1"/>
<stop offset="0.117188" stop-color="rgb(15.65094%, 49.612427%, 76.353455%)" stop-opacity="1"/>
<stop offset="0.125" stop-color="rgb(16.000366%, 49.8703%, 76.560974%)" stop-opacity="1"/>
<stop offset="0.132812" stop-color="rgb(16.349792%, 50.128174%, 76.77002%)" stop-opacity="1"/>
<stop offset="0.140625" stop-color="rgb(16.699219%, 50.384521%, 76.977539%)" stop-opacity="1"/>
<stop offset="0.148438" stop-color="rgb(17.048645%, 50.642395%, 77.186584%)" stop-opacity="1"/>
<stop offset="0.15625" stop-color="rgb(17.398071%, 50.898743%, 77.394104%)" stop-opacity="1"/>
<stop offset="0.164062" stop-color="rgb(17.745972%, 51.156616%, 77.603149%)" stop-opacity="1"/>
<stop offset="0.171875" stop-color="rgb(18.095398%, 51.41449%, 77.810669%)" stop-opacity="1"/>
<stop offset="0.179688" stop-color="rgb(18.444824%, 51.670837%, 78.019714%)" stop-opacity="1"/>
<stop offset="0.1875" stop-color="rgb(18.79425%, 51.928711%, 78.227234%)" stop-opacity="1"/>
<stop offset="0.195312" stop-color="rgb(19.143677%, 52.186584%, 78.436279%)" stop-opacity="1"/>
<stop offset="0.203125" stop-color="rgb(19.493103%, 52.442932%, 78.645325%)" stop-opacity="1"/>
<stop offset="0.210938" stop-color="rgb(19.842529%, 52.700806%, 78.852844%)" stop-opacity="1"/>
<stop offset="0.21875" stop-color="rgb(20.191956%, 52.958679%, 79.06189%)" stop-opacity="1"/>
<stop offset="0.226562" stop-color="rgb(20.541382%, 53.215027%, 79.269409%)" stop-opacity="1"/>
<stop offset="0.234375" stop-color="rgb(20.890808%, 53.4729%, 79.478455%)" stop-opacity="1"/>
<stop offset="0.242188" stop-color="rgb(21.238708%, 53.730774%, 79.685974%)" stop-opacity="1"/>
<stop offset="0.25" stop-color="rgb(21.588135%, 53.987122%, 79.89502%)" stop-opacity="1"/>
<stop offset="0.257812" stop-color="rgb(21.937561%, 54.244995%, 80.102539%)" stop-opacity="1"/>
<stop offset="0.265625" stop-color="rgb(22.286987%, 54.502869%, 80.311584%)" stop-opacity="1"/>
<stop offset="0.273438" stop-color="rgb(22.636414%, 54.759216%, 80.519104%)" stop-opacity="1"/>
<stop offset="0.28125" stop-color="rgb(22.98584%, 55.01709%, 80.728149%)" stop-opacity="1"/>
<stop offset="0.289062" stop-color="rgb(23.335266%, 55.274963%, 80.935669%)" stop-opacity="1"/>
<stop offset="0.296875" stop-color="rgb(23.684692%, 55.531311%, 81.144714%)" stop-opacity="1"/>
<stop offset="0.304688" stop-color="rgb(24.034119%, 55.789185%, 81.352234%)" stop-opacity="1"/>
<stop offset="0.3125" stop-color="rgb(24.382019%, 56.047058%, 81.561279%)" stop-opacity="1"/>
<stop offset="0.320312" stop-color="rgb(24.731445%, 56.303406%, 81.770325%)" stop-opacity="1"/>
<stop offset="0.328125" stop-color="rgb(25.080872%, 56.561279%, 81.977844%)" stop-opacity="1"/>
<stop offset="0.335938" stop-color="rgb(25.430298%, 56.819153%, 82.18689%)" stop-opacity="1"/>
<stop offset="0.34375" stop-color="rgb(25.779724%, 57.0755%, 82.394409%)" stop-opacity="1"/>
<stop offset="0.351562" stop-color="rgb(26.12915%, 57.333374%, 82.603455%)" stop-opacity="1"/>
<stop offset="0.359375" stop-color="rgb(26.478577%, 57.591248%, 82.810974%)" stop-opacity="1"/>
<stop offset="0.367188" stop-color="rgb(26.828003%, 57.847595%, 83.02002%)" stop-opacity="1"/>
<stop offset="0.375" stop-color="rgb(27.177429%, 58.105469%, 83.227539%)" stop-opacity="1"/>
<stop offset="0.382812" stop-color="rgb(27.526855%, 58.363342%, 83.436584%)" stop-opacity="1"/>
<stop offset="0.390625" stop-color="rgb(27.874756%, 58.61969%, 83.644104%)" stop-opacity="1"/>
<stop offset="0.398438" stop-color="rgb(28.224182%, 58.877563%, 83.853149%)" stop-opacity="1"/>
<stop offset="0.40625" stop-color="rgb(28.573608%, 59.135437%, 84.060669%)" stop-opacity="1"/>
<stop offset="0.414062" stop-color="rgb(28.923035%, 59.391785%, 84.269714%)" stop-opacity="1"/>
<stop offset="0.421875" stop-color="rgb(29.272461%, 59.649658%, 84.477234%)" stop-opacity="1"/>
<stop offset="0.429688" stop-color="rgb(29.621887%, 59.907532%, 84.686279%)" stop-opacity="1"/>
<stop offset="0.4375" stop-color="rgb(29.971313%, 60.163879%, 84.895325%)" stop-opacity="1"/>
<stop offset="0.445312" stop-color="rgb(30.32074%, 60.421753%, 85.102844%)" stop-opacity="1"/>
<stop offset="0.453125" stop-color="rgb(30.670166%, 60.679626%, 85.31189%)" stop-opacity="1"/>
<stop offset="0.460938" stop-color="rgb(31.018066%, 60.935974%, 85.519409%)" stop-opacity="1"/>
<stop offset="0.46875" stop-color="rgb(31.367493%, 61.193848%, 85.728455%)" stop-opacity="1"/>
<stop offset="0.476562" stop-color="rgb(31.716919%, 61.450195%, 85.935974%)" stop-opacity="1"/>
<stop offset="0.484375" stop-color="rgb(32.066345%, 61.708069%, 86.14502%)" stop-opacity="1"/>
<stop offset="0.492188" stop-color="rgb(32.415771%, 61.965942%, 86.352539%)" stop-opacity="1"/>
<stop offset="0.5" stop-color="rgb(32.765198%, 62.22229%, 86.561584%)" stop-opacity="1"/>
<stop offset="0.507812" stop-color="rgb(33.114624%, 62.480164%, 86.769104%)" stop-opacity="1"/>
<stop offset="0.515625" stop-color="rgb(33.46405%, 62.738037%, 86.978149%)" stop-opacity="1"/>
<stop offset="0.523437" stop-color="rgb(33.813477%, 62.994385%, 87.185669%)" stop-opacity="1"/>
<stop offset="0.53125" stop-color="rgb(34.161377%, 63.252258%, 87.394714%)" stop-opacity="1"/>
<stop offset="0.539062" stop-color="rgb(34.510803%, 63.510132%, 87.602234%)" stop-opacity="1"/>
<stop offset="0.546875" stop-color="rgb(34.860229%, 63.766479%, 87.811279%)" stop-opacity="1"/>
<stop offset="0.554688" stop-color="rgb(35.209656%, 64.024353%, 88.020325%)" stop-opacity="1"/>
<stop offset="0.5625" stop-color="rgb(35.559082%, 64.282227%, 88.227844%)" stop-opacity="1"/>
<stop offset="0.570312" stop-color="rgb(35.908508%, 64.538574%, 88.43689%)" stop-opacity="1"/>
<stop offset="0.578125" stop-color="rgb(36.257935%, 64.796448%, 88.644409%)" stop-opacity="1"/>
<stop offset="0.585938" stop-color="rgb(36.607361%, 65.054321%, 88.853455%)" stop-opacity="1"/>
<stop offset="0.59375" stop-color="rgb(36.956787%, 65.310669%, 89.060974%)" stop-opacity="1"/>
<stop offset="0.601563" stop-color="rgb(37.306213%, 65.568542%, 89.27002%)" stop-opacity="1"/>
<stop offset="0.609375" stop-color="rgb(37.654114%, 65.826416%, 89.477539%)" stop-opacity="1"/>
<stop offset="0.617188" stop-color="rgb(38.00354%, 66.082764%, 89.686584%)" stop-opacity="1"/>
<stop offset="0.625" stop-color="rgb(38.352966%, 66.340637%, 89.894104%)" stop-opacity="1"/>
<stop offset="0.632812" stop-color="rgb(38.702393%, 66.598511%, 90.103149%)" stop-opacity="1"/>
<stop offset="0.640625" stop-color="rgb(39.051819%, 66.854858%, 90.310669%)" stop-opacity="1"/>
<stop offset="0.648437" stop-color="rgb(39.401245%, 67.112732%, 90.519714%)" stop-opacity="1"/>
<stop offset="0.65625" stop-color="rgb(39.750671%, 67.370605%, 90.727234%)" stop-opacity="1"/>
<stop offset="0.664062" stop-color="rgb(40.100098%, 67.626953%, 90.936279%)" stop-opacity="1"/>
<stop offset="0.671875" stop-color="rgb(40.449524%, 67.884827%, 91.145325%)" stop-opacity="1"/>
<stop offset="0.679688" stop-color="rgb(40.797424%, 68.1427%, 91.352844%)" stop-opacity="1"/>
<stop offset="0.6875" stop-color="rgb(41.146851%, 68.399048%, 91.56189%)" stop-opacity="1"/>
<stop offset="0.695312" stop-color="rgb(41.496277%, 68.656921%, 91.769409%)" stop-opacity="1"/>
<stop offset="0.703125" stop-color="rgb(41.845703%, 68.914795%, 91.978455%)" stop-opacity="1"/>
<stop offset="0.710938" stop-color="rgb(42.195129%, 69.171143%, 92.185974%)" stop-opacity="1"/>
<stop offset="0.71875" stop-color="rgb(42.544556%, 69.429016%, 92.39502%)" stop-opacity="1"/>
<stop offset="0.726563" stop-color="rgb(42.893982%, 69.68689%, 92.602539%)" stop-opacity="1"/>
<stop offset="0.734375" stop-color="rgb(43.243408%, 69.943237%, 92.811584%)" stop-opacity="1"/>
<stop offset="0.742188" stop-color="rgb(43.592834%, 70.201111%, 93.019104%)" stop-opacity="1"/>
<stop offset="0.75" stop-color="rgb(43.942261%, 70.458984%, 93.228149%)" stop-opacity="1"/>
<stop offset="0.757812" stop-color="rgb(44.290161%, 70.715332%, 93.435669%)" stop-opacity="1"/>
<stop offset="0.765625" stop-color="rgb(44.639587%, 70.973206%, 93.644714%)" stop-opacity="1"/>
<stop offset="0.773437" stop-color="rgb(44.989014%, 71.231079%, 93.852234%)" stop-opacity="1"/>
<stop offset="0.78125" stop-color="rgb(45.33844%, 71.487427%, 94.061279%)" stop-opacity="1"/>
<stop offset="0.789062" stop-color="rgb(45.687866%, 71.7453%, 94.270325%)" stop-opacity="1"/>
<stop offset="0.796875" stop-color="rgb(46.037292%, 72.001648%, 94.477844%)" stop-opacity="1"/>
<stop offset="0.804688" stop-color="rgb(46.386719%, 72.259521%, 94.68689%)" stop-opacity="1"/>
<stop offset="0.8125" stop-color="rgb(46.736145%, 72.517395%, 94.894409%)" stop-opacity="1"/>
<stop offset="0.820312" stop-color="rgb(47.085571%, 72.773743%, 95.103455%)" stop-opacity="1"/>
<stop offset="0.828125" stop-color="rgb(47.433472%, 73.031616%, 95.310974%)" stop-opacity="1"/>
<stop offset="0.835938" stop-color="rgb(47.782898%, 73.28949%, 95.52002%)" stop-opacity="1"/>
<stop offset="0.84375" stop-color="rgb(48.132324%, 73.545837%, 95.727539%)" stop-opacity="1"/>
<stop offset="0.851563" stop-color="rgb(48.48175%, 73.803711%, 95.936584%)" stop-opacity="1"/>
<stop offset="0.859375" stop-color="rgb(48.831177%, 74.061584%, 96.144104%)" stop-opacity="1"/>
<stop offset="0.867188" stop-color="rgb(49.180603%, 74.317932%, 96.353149%)" stop-opacity="1"/>
<stop offset="0.875" stop-color="rgb(49.530029%, 74.575806%, 96.560669%)" stop-opacity="1"/>
<stop offset="0.882812" stop-color="rgb(49.879456%, 74.833679%, 96.769714%)" stop-opacity="1"/>
<stop offset="0.890625" stop-color="rgb(50.228882%, 75.090027%, 96.977234%)" stop-opacity="1"/>
<stop offset="0.898437" stop-color="rgb(50.578308%, 75.3479%, 97.186279%)" stop-opacity="1"/>
<stop offset="0.90625" stop-color="rgb(50.926208%, 75.605774%, 97.395325%)" stop-opacity="1"/>
<stop offset="0.914062" stop-color="rgb(51.275635%, 75.862122%, 97.602844%)" stop-opacity="1"/>
<stop offset="0.921875" stop-color="rgb(51.625061%, 76.119995%, 97.81189%)" stop-opacity="1"/>
<stop offset="0.929688" stop-color="rgb(51.974487%, 76.377869%, 98.019409%)" stop-opacity="1"/>
<stop offset="0.9375" stop-color="rgb(52.323914%, 76.634216%, 98.228455%)" stop-opacity="1"/>
<stop offset="0.945312" stop-color="rgb(52.67334%, 76.89209%, 98.435974%)" stop-opacity="1"/>
<stop offset="0.953125" stop-color="rgb(53.022766%, 77.149963%, 98.64502%)" stop-opacity="1"/>
<stop offset="0.960938" stop-color="rgb(53.372192%, 77.406311%, 98.852539%)" stop-opacity="1"/>
<stop offset="0.96875" stop-color="rgb(53.721619%, 77.664185%, 99.061584%)" stop-opacity="1"/>
<stop offset="0.976563" stop-color="rgb(54.069519%, 77.922058%, 99.269104%)" stop-opacity="1"/>
<stop offset="0.984375" stop-color="rgb(54.418945%, 78.178406%, 99.478149%)" stop-opacity="1"/>
<stop offset="0.992188" stop-color="rgb(54.768372%, 78.436279%, 99.685669%)" stop-opacity="1"/>
<stop offset="1" stop-color="rgb(55.117798%, 78.694153%, 99.894714%)" stop-opacity="1"/>
</linearGradient>
</defs>
<g clip-path="url(#clip-0)">
<g clip-path="url(#clip-1)">
<g clip-path="url(#clip-2)">
<path fill-rule="nonzero" fill="url(#linear-pattern-0)" d="M 300 2700 L 2700 2700 L 2700 300 L 300 300 Z M 300 2700 "/>
</g>
</g>
</g>
<path fill-rule="nonzero" fill="rgb(95.701599%, 83.201599%, 58.396912%)" fill-opacity="1" d="M 1964.820312 1361.761719 L 1964.929688 1368.601562 L 1964.910156 1375.441406 L 1964.511719 1389.160156 L 1963.648438 1402.878906 L 1962.371094 1416.570312 L 1960.699219 1430.210938 L 1958.671875 1443.78125 L 1956.328125 1457.230469 L 1953.699219 1470.550781 L 1950.808594 1483.691406 L 1945.839844 1510.828125 L 1939.941406 1537.828125 L 1936.628906 1551.25 L 1933.089844 1564.621094 L 1932.921875 1565.210938 L 1929.289062 1577.921875 L 1925.25 1591.148438 L 1920.960938 1604.289062 L 1916.410156 1617.359375 L 1911.601562 1630.328125 L 1906.53125 1643.199219 L 1901.191406 1655.960938 L 1895.578125 1668.621094 L 1889.699219 1681.140625 L 1883.539062 1693.550781 L 1873.449219 1712.5 L 1862.699219 1731.121094 L 1851.328125 1749.398438 L 1839.359375 1767.328125 L 1826.808594 1784.898438 L 1813.710938 1802.101562 L 1800.078125 1818.929688 L 1785.941406 1835.378906 L 1771.320312 1851.441406 L 1761.210938 1861.941406 L 1756.238281 1867.089844 L 1740.730469 1882.328125 L 1724.800781 1897.160156 L 1708.488281 1911.558594 L 1691.820312 1925.519531 L 1674.820312 1939.039062 L 1657.488281 1952.109375 C 1563.789062 2020.96875 1436.210938 2020.96875 1342.511719 1952.109375 L 1325.179688 1939.039062 L 1308.179688 1925.519531 L 1291.511719 1911.558594 L 1275.199219 1897.160156 L 1259.269531 1882.328125 L 1243.761719 1867.089844 L 1238.789062 1861.941406 L 1228.679688 1851.441406 L 1214.058594 1835.378906 L 1199.921875 1818.929688 L 1186.289062 1802.101562 L 1173.191406 1784.898438 L 1160.640625 1767.328125 L 1148.671875 1749.398438 L 1137.300781 1731.121094 L 1126.550781 1712.5 L 1116.460938 1693.550781 L 1110.300781 1681.140625 L 1104.421875 1668.621094 L 1098.808594 1655.960938 L 1093.46875 1643.199219 L 1088.398438 1630.328125 L 1083.589844 1617.359375 L 1079.039062 1604.289062 L 1074.75 1591.148438 L 1070.710938 1577.921875 L 1067.078125 1565.210938 L 1066.910156 1564.621094 L 1063.371094 1551.25 L 1060.058594 1537.828125 L 1054.160156 1510.828125 L 1049.191406 1483.691406 L 1046.300781 1470.550781 L 1043.671875 1457.230469 L 1041.328125 1443.78125 L 1039.300781 1430.210938 L 1037.628906 1416.570312 L 1036.351562 1402.878906 L 1035.488281 1389.160156 L 1035.089844 1375.441406 L 1035.070312 1368.601562 L 1035.179688 1361.761719 L 1035.421875 1354.949219 L 1035.789062 1348.148438 L 1036.300781 1341.371094 L 1036.960938 1334.621094 L 1037.761719 1327.898438 L 1038.71875 1321.21875 L 1039.828125 1314.570312 L 1041.101562 1307.96875 L 1042.539062 1301.398438 L 1044.140625 1294.890625 L 1045.921875 1288.429688 L 1047.878906 1282.019531 L 1050.019531 1275.671875 L 1052.339844 1269.390625 L 1055.089844 1262.578125 L 1058.039062 1255.851562 L 1061.148438 1249.171875 L 1084.570312 1203.121094 L 1087.75 1196.511719 L 1090.789062 1189.859375 L 1093.648438 1183.160156 L 1096.308594 1176.398438 L 1097.550781 1172.988281 L 1098.71875 1169.570312 L 1099.828125 1166.121094 L 1100.859375 1162.648438 L 1101.96875 1158.558594 L 1102.96875 1154.441406 L 1103.878906 1150.289062 L 1104.679688 1146.121094 L 1105.390625 1141.921875 L 1105.988281 1137.691406 L 1106.511719 1133.449219 L 1106.929688 1129.179688 L 1107.261719 1124.898438 L 1107.5 1120.589844 L 1107.648438 1116.28125 L 1107.710938 1111.941406 L 1107.699219 1107.601562 L 1107.589844 1103.25 L 1107.410156 1098.890625 L 1107.148438 1094.519531 C 1106.378906 1083.230469 1103.890625 1072.121094 1099.761719 1061.578125 L 1097.75 1056.460938 C 1255.078125 1117.820312 1421.421875 1152.921875 1590.128906 1160.351562 L 1606.820312 1160.851562 L 1623.460938 1160.851562 L 1640.058594 1160.328125 L 1656.589844 1159.261719 L 1664.828125 1158.519531 L 1673.058594 1157.628906 L 1681.261719 1156.589844 L 1689.441406 1155.398438 L 1697.589844 1154.050781 L 1705.71875 1152.550781 L 1713.828125 1150.890625 L 1721.910156 1149.058594 L 1734.148438 1145.960938 L 1746.320312 1142.480469 L 1758.398438 1138.621094 L 1770.378906 1134.390625 L 1782.25 1129.800781 L 1794 1124.839844 L 1805.609375 1119.53125 L 1817.078125 1113.859375 L 1828.390625 1107.851562 L 1839.539062 1101.488281 L 1850.5 1094.800781 L 1861.28125 1087.78125 L 1871.851562 1080.429688 L 1882.210938 1072.75 L 1892.351562 1064.761719 L 1902.25 1056.460938 L 1900.238281 1061.578125 C 1896.109375 1072.121094 1893.621094 1083.230469 1892.851562 1094.519531 L 1892.589844 1098.890625 L 1892.410156 1103.25 L 1892.300781 1107.601562 L 1892.289062 1111.941406 L 1892.351562 1116.28125 L 1892.5 1120.589844 L 1892.738281 1124.898438 L 1893.070312 1129.179688 L 1893.488281 1133.449219 L 1894.011719 1137.691406 L 1894.609375 1141.921875 L 1895.320312 1146.121094 L 1896.121094 1150.289062 L 1897.03125 1154.441406 L 1898.03125 1158.558594 L 1899.140625 1162.648438 L 1900.171875 1166.121094 L 1901.28125 1169.570312 L 1902.449219 1172.988281 L 1903.691406 1176.398438 L 1906.351562 1183.160156 L 1909.210938 1189.859375 L 1912.25 1196.511719 L 1915.429688 1203.121094 L 1938.851562 1249.171875 L 1941.960938 1255.851562 L 1944.910156 1262.578125 L 1947.660156 1269.390625 L 1949.980469 1275.671875 L 1952.121094 1282.019531 L 1954.078125 1288.429688 L 1955.859375 1294.890625 L 1957.460938 1301.398438 L 1958.898438 1307.96875 L 1960.171875 1314.570312 L 1961.28125 1321.21875 L 1962.238281 1327.898438 L 1963.039062 1334.621094 L 1963.699219 1341.371094 L 1964.210938 1348.148438 L 1964.578125 1354.949219 L 1964.820312 1361.761719 "/>
<path fill-rule="nonzero" fill="rgb(84.764099%, 70.896912%, 46.655273%)" fill-opacity="1" d="M 1066.910156 1564.621094 L 1067.078125 1565.210938 L 1055.71875 1561.050781 L 1044.550781 1556.628906 L 1033.578125 1551.929688 L 1028.171875 1549.449219 L 1022.820312 1546.890625 L 1017.53125 1544.230469 L 1012.289062 1541.46875 L 1007.121094 1538.609375 L 1002.011719 1535.628906 L 996.960938 1532.539062 L 991.96875 1529.320312 L 987.050781 1525.96875 L 982.199219 1522.5 L 977.410156 1518.878906 L 972.699219 1515.109375 L 968.058594 1511.199219 L 963.5 1507.128906 L 959.011719 1502.898438 L 954.589844 1498.5 L 950.261719 1493.929688 L 946.011719 1489.191406 L 941.828125 1484.25 L 937.75 1479.128906 L 933.738281 1473.820312 L 929.828125 1468.300781 L 926 1462.578125 L 922.261719 1456.640625 L 918.621094 1450.488281 L 915.058594 1444.121094 L 912.25 1438.769531 L 909.5 1433.289062 L 906.839844 1427.691406 L 904.261719 1421.988281 L 901.78125 1416.210938 L 899.410156 1410.351562 L 897.148438 1404.441406 L 895.019531 1398.488281 L 893.019531 1392.519531 L 891.160156 1386.550781 L 889.460938 1380.578125 L 887.910156 1374.648438 L 886.53125 1368.75 L 885.320312 1362.921875 L 884.308594 1357.160156 L 883.480469 1351.5 L 882.871094 1345.941406 L 882.628906 1343.210938 L 882.460938 1340.511719 L 882.339844 1337.839844 L 882.269531 1335.210938 L 882.269531 1332.621094 L 882.320312 1330.078125 L 882.429688 1327.570312 L 882.601562 1325.109375 L 882.828125 1322.699219 L 883.128906 1320.339844 L 883.488281 1318.019531 L 883.910156 1315.769531 L 884.410156 1313.558594 L 884.679688 1312.480469 L 884.960938 1311.421875 L 885.269531 1310.371094 L 885.589844 1309.328125 L 885.929688 1308.308594 L 886.289062 1307.308594 L 886.660156 1306.320312 L 887.058594 1305.339844 L 887.46875 1304.390625 L 887.898438 1303.449219 L 888.339844 1302.519531 L 888.808594 1301.621094 L 889.289062 1300.730469 L 889.789062 1299.859375 L 890.320312 1299.011719 L 890.859375 1298.171875 L 891.410156 1297.359375 L 891.988281 1296.558594 L 892.589844 1295.78125 L 893.210938 1295.019531 L 893.839844 1294.28125 L 894.5 1293.558594 L 895.179688 1292.859375 L 895.871094 1292.179688 L 896.589844 1291.519531 L 897.328125 1290.878906 L 898.078125 1290.261719 L 898.859375 1289.660156 L 899.660156 1289.078125 L 900.480469 1288.53125 L 901.320312 1288 L 902.179688 1287.480469 L 903.058594 1287 L 903.960938 1286.53125 L 904.761719 1286.148438 L 905.570312 1285.789062 L 906.390625 1285.441406 L 907.230469 1285.101562 L 908.078125 1284.789062 L 908.949219 1284.488281 L 909.828125 1284.199219 L 910.730469 1283.941406 L 911.628906 1283.679688 L 912.550781 1283.441406 L 913.488281 1283.21875 L 914.429688 1283.011719 L 916.359375 1282.628906 L 918.328125 1282.320312 L 920.339844 1282.050781 L 922.390625 1281.839844 L 924.46875 1281.679688 L 926.589844 1281.570312 L 928.738281 1281.5 L 930.921875 1281.480469 L 933.121094 1281.511719 L 935.351562 1281.578125 L 939.851562 1281.839844 L 944.410156 1282.25 L 949.011719 1282.800781 L 953.621094 1283.46875 L 958.210938 1284.25 L 962.78125 1285.140625 L 967.289062 1286.101562 L 971.71875 1287.140625 L 989 1337.269531 L 1007.441406 1386.800781 L 1027.378906 1435.648438 L 1038.03125 1459.78125 L 1049.191406 1483.691406 L 1054.160156 1510.828125 L 1060.058594 1537.828125 L 1063.371094 1551.25 L 1066.910156 1564.621094 "/>
<path fill-rule="nonzero" fill="rgb(0%, 0%, 0%)" fill-opacity="1" d="M 2026.671875 1287.53125 L 2025.449219 1291.480469 L 2008.621094 1341.148438 L 1990.308594 1389.941406 L 1970.910156 1437.558594 L 1950.808594 1483.691406 L 1953.699219 1470.550781 L 1956.328125 1457.230469 L 1958.671875 1443.78125 L 1960.699219 1430.210938 L 1962.371094 1416.570312 L 1963.648438 1402.878906 L 1964.511719 1389.160156 L 1964.910156 1375.441406 L 1964.929688 1368.601562 L 1964.820312 1361.761719 L 1964.578125 1354.949219 L 1964.210938 1348.148438 L 1963.699219 1341.371094 L 1963.039062 1334.621094 L 1962.238281 1327.898438 L 1961.28125 1321.21875 L 1960.171875 1314.570312 L 1958.898438 1307.96875 L 1957.460938 1301.398438 L 1955.859375 1294.890625 L 1954.078125 1288.429688 L 1952.121094 1282.019531 L 1949.980469 1275.671875 L 1947.660156 1269.390625 L 1944.910156 1262.578125 L 1941.960938 1255.851562 L 1938.851562 1249.171875 L 1915.429688 1203.121094 L 1912.25 1196.511719 L 1909.210938 1189.859375 L 1906.351562 1183.160156 L 1903.691406 1176.398438 L 1902.449219 1172.988281 L 1901.28125 1169.570312 L 1900.171875 1166.121094 L 1899.140625 1162.648438 L 1898.03125 1158.558594 L 1897.03125 1154.441406 L 1896.121094 1150.289062 L 1895.320312 1146.121094 L 1894.609375 1141.921875 L 1894.011719 1137.691406 L 1893.488281 1133.449219 L 1893.070312 1129.179688 L 1892.738281 1124.898438 L 1892.5 1120.589844 L 1892.351562 1116.28125 L 1892.289062 1111.941406 L 1892.300781 1107.601562 L 1892.410156 1103.25 L 1892.589844 1098.890625 L 1892.851562 1094.519531 C 1893.621094 1083.230469 1896.109375 1072.121094 1900.238281 1061.578125 L 1902.25 1056.460938 L 1892.351562 1064.761719 L 1882.210938 1072.75 L 1871.851562 1080.429688 L 1861.28125 1087.78125 L 1850.5 1094.800781 L 1839.539062 1101.488281 L 1828.390625 1107.851562 L 1817.078125 1113.859375 L 1805.609375 1119.53125 L 1794 1124.839844 L 1782.25 1129.800781 L 1770.378906 1134.390625 L 1758.398438 1138.621094 L 1746.320312 1142.480469 L 1734.148438 1145.960938 L 1721.910156 1149.058594 L 1713.828125 1150.890625 L 1705.71875 1152.550781 L 1697.589844 1154.050781 L 1689.441406 1155.398438 L 1681.261719 1156.589844 L 1673.058594 1157.628906 L 1664.828125 1158.519531 L 1656.589844 1159.261719 L 1640.058594 1160.328125 L 1623.460938 1160.851562 L 1606.820312 1160.851562 L 1590.128906 1160.351562 C 1421.421875 1152.921875 1255.078125 1117.820312 1097.75 1056.460938 L 1099.761719 1061.578125 C 1103.890625 1072.121094 1106.378906 1083.230469 1107.148438 1094.519531 L 1107.410156 1098.890625 L 1107.589844 1103.25 L 1107.699219 1107.601562 L 1107.710938 1111.941406 L 1107.648438 1116.28125 L 1107.5 1120.589844 L 1107.261719 1124.898438 L 1106.929688 1129.179688 L 1106.511719 1133.449219 L 1105.988281 1137.691406 L 1105.390625 1141.921875 L 1104.679688 1146.121094 L 1103.878906 1150.289062 L 1102.96875 1154.441406 L 1101.96875 1158.558594 L 1100.859375 1162.648438 L 1099.828125 1166.121094 L 1098.71875 1169.570312 L 1097.550781 1172.988281 L 1096.308594 1176.398438 L 1093.648438 1183.160156 L 1090.789062 1189.859375 L 1087.75 1196.511719 L 1084.570312 1203.121094 L 1061.148438 1249.171875 L 1058.039062 1255.851562 L 1055.089844 1262.578125 L 1052.339844 1269.390625 L 1050.019531 1275.671875 L 1047.878906 1282.019531 L 1045.921875 1288.429688 L 1044.140625 1294.890625 L 1042.539062 1301.398438 L 1041.101562 1307.96875 L 1039.828125 1314.570312 L 1038.71875 1321.21875 L 1037.761719 1327.898438 L 1036.960938 1334.621094 L 1036.300781 1341.371094 L 1035.789062 1348.148438 L 1035.421875 1354.949219 L 1035.179688 1361.761719 L 1035.070312 1368.601562 L 1035.089844 1375.441406 L 1035.488281 1389.160156 L 1036.351562 1402.878906 L 1037.628906 1416.570312 L 1039.300781 1430.210938 L 1041.328125 1443.78125 L 1043.671875 1457.230469 L 1046.300781 1470.550781 L 1049.191406 1483.691406 L 1038.03125 1459.78125 L 1027.378906 1435.648438 L 1007.441406 1386.800781 L 989 1337.269531 L 971.71875 1287.140625 L 953.898438 1231.25 L 945.800781 1203.070312 L 938.46875 1174.738281 L 935.148438 1160.511719 L 932.078125 1146.238281 L 929.300781 1131.941406 L 926.820312 1117.589844 L 924.671875 1103.199219 L 922.859375 1088.769531 L 921.421875 1074.300781 L 920.371094 1059.789062 L 919.691406 1044.238281 L 919.480469 1028.648438 L 919.710938 1013.039062 L 920.371094 997.421875 L 921.460938 981.789062 L 922.960938 966.179688 L 924.859375 950.601562 L 927.148438 935.039062 L 929.808594 919.539062 L 932.839844 904.089844 L 936.21875 888.71875 L 939.941406 873.429688 L 943.988281 858.230469 L 948.359375 843.140625 L 953.03125 828.171875 L 957.988281 813.328125 C 970.621094 835.890625 984.660156 857.628906 1000.050781 878.398438 L 1005.570312 869.199219 L 1010.910156 859.878906 L 1016.070312 850.449219 L 1021.050781 840.898438 L 1025.828125 831.25 L 1030.421875 821.5 L 1034.820312 811.660156 L 1039 801.71875 L 1042.980469 791.699219 L 1046.75 781.589844 L 1050.300781 771.398438 L 1053.628906 761.140625 L 1056.730469 750.820312 L 1059.609375 740.421875 L 1062.238281 729.96875 L 1064.640625 719.460938 L 1066.621094 709.820312 L 1068.390625 700.140625 L 1069.96875 690.429688 L 1071.351562 680.691406 L 1072.53125 670.921875 L 1073.511719 661.128906 L 1074.308594 651.328125 L 1074.910156 641.511719 L 1075.328125 631.691406 L 1075.550781 621.859375 L 1075.601562 612.03125 L 1075.460938 602.210938 L 1075.140625 592.398438 L 1074.640625 582.601562 L 1073.960938 572.820312 L 1073.101562 563.058594 L 1079.25 566.179688 L 1085.328125 569.488281 L 1091.328125 572.988281 L 1097.238281 576.679688 L 1103.039062 580.550781 L 1108.730469 584.601562 L 1114.289062 588.820312 L 1119.730469 593.21875 L 1125.019531 597.789062 L 1130.148438 602.519531 L 1135.121094 607.421875 L 1139.921875 612.46875 L 1142.25 615.050781 L 1144.539062 617.679688 L 1146.769531 620.339844 L 1148.960938 623.039062 L 1151.089844 625.769531 L 1153.179688 628.550781 L 1155.199219 631.359375 L 1157.179688 634.199219 L 1159.039062 637 L 1160.859375 639.828125 L 1162.621094 642.699219 L 1164.328125 645.589844 L 1167.589844 651.460938 L 1170.660156 657.441406 L 1173.519531 663.511719 L 1176.191406 669.671875 L 1178.671875 675.898438 L 1180.960938 682.191406 L 1188.191406 676.550781 L 1195.289062 670.710938 L 1202.261719 664.671875 L 1209.070312 658.449219 L 1215.730469 652.039062 L 1222.230469 645.449219 L 1228.539062 638.679688 L 1234.671875 631.75 L 1240.609375 624.640625 L 1246.339844 617.371094 L 1251.851562 609.941406 L 1257.140625 602.351562 L 1262.199219 594.609375 L 1267.011719 586.730469 L 1271.570312 578.699219 L 1275.871094 570.539062 L 1279.039062 564.050781 L 1282.050781 557.488281 L 1284.898438 550.859375 L 1287.578125 544.148438 L 1290.101562 537.390625 L 1292.460938 530.570312 L 1294.671875 523.691406 L 1296.710938 516.769531 L 1298.601562 509.808594 L 1300.339844 502.800781 L 1301.921875 495.769531 L 1303.359375 488.699219 L 1304.640625 481.621094 L 1305.78125 474.511719 L 1306.769531 467.390625 L 1307.609375 460.261719 C 1400.488281 492.53125 1489.578125 534.828125 1573.28125 586.410156 L 1549.058594 507.878906 L 1560.871094 509.851562 L 1572.660156 512.039062 L 1584.421875 514.46875 L 1596.140625 517.140625 L 1607.808594 520.039062 L 1619.421875 523.199219 L 1630.96875 526.601562 L 1642.449219 530.25 L 1653.839844 534.160156 L 1665.128906 538.328125 L 1676.328125 542.75 L 1687.421875 547.449219 L 1698.390625 552.421875 L 1709.230469 557.648438 L 1719.941406 563.171875 L 1730.5 568.960938 L 1739.078125 573.941406 L 1747.558594 579.109375 L 1755.929688 584.46875 L 1764.199219 590 L 1772.351562 595.710938 L 1780.398438 601.578125 L 1788.328125 607.621094 L 1796.148438 613.820312 L 1803.851562 620.179688 L 1811.441406 626.691406 L 1818.910156 633.339844 L 1826.261719 640.140625 L 1833.488281 647.070312 L 1840.589844 654.140625 L 1847.578125 661.339844 L 1854.441406 668.660156 L 1867.78125 683.660156 L 1880.601562 699.089844 L 1892.898438 714.941406 L 1904.648438 731.148438 L 1915.859375 747.699219 L 1926.5 764.539062 L 1936.578125 781.640625 L 1946.070312 798.96875 L 1968.761719 736.050781 L 1977.261719 744.988281 L 1985.359375 754.109375 L 1993.050781 763.410156 L 2000.359375 772.890625 L 2007.28125 782.53125 L 2013.808594 792.339844 L 2019.96875 802.308594 L 2025.761719 812.441406 L 2031.191406 822.71875 L 2036.269531 833.140625 L 2040.988281 843.710938 L 2045.371094 854.410156 L 2049.410156 865.25 L 2053.109375 876.210938 L 2056.5 887.289062 L 2059.558594 898.5 L 2062.308594 909.820312 L 2064.75 921.238281 L 2066.890625 932.769531 L 2068.730469 944.398438 L 2070.289062 956.128906 L 2071.558594 967.941406 L 2072.558594 979.851562 L 2073.28125 991.828125 L 2073.738281 1003.878906 L 2073.941406 1016.011719 L 2073.890625 1028.210938 L 2073.601562 1040.46875 L 2073.058594 1052.78125 L 2072.289062 1065.148438 L 2070.078125 1090.03125 L 2067 1115.058594 L 2063.109375 1140.210938 L 2058.449219 1165.441406 L 2053.078125 1190.710938 L 2047.050781 1215.988281 L 2040.398438 1241.238281 L 2033.179688 1266.410156 L 2026.671875 1287.53125 "/>
<path fill-rule="nonzero" fill="rgb(84.764099%, 70.896912%, 46.655273%)" fill-opacity="1" d="M 2117.730469 1332.621094 L 2117.730469 1335.210938 L 2117.660156 1337.839844 L 2117.539062 1340.511719 L 2117.371094 1343.210938 L 2117.128906 1345.941406 L 2116.519531 1351.5 L 2115.691406 1357.160156 L 2114.679688 1362.921875 L 2113.46875 1368.75 L 2112.089844 1374.648438 L 2110.539062 1380.578125 L 2108.839844 1386.550781 L 2106.980469 1392.519531 L 2104.980469 1398.488281 L 2102.851562 1404.441406 L 2100.589844 1410.351562 L 2098.21875 1416.210938 L 2095.738281 1421.988281 L 2093.160156 1427.691406 L 2090.5 1433.289062 L 2087.75 1438.769531 L 2084.941406 1444.121094 L 2081.378906 1450.488281 L 2077.738281 1456.640625 L 2074 1462.578125 L 2070.171875 1468.300781 L 2066.261719 1473.820312 L 2062.25 1479.128906 L 2058.171875 1484.25 L 2053.988281 1489.191406 L 2049.738281 1493.929688 L 2045.410156 1498.5 L 2040.988281 1502.898438 L 2036.5 1507.128906 L 2031.941406 1511.199219 L 2027.300781 1515.109375 L 2022.589844 1518.878906 L 2017.800781 1522.5 L 2012.949219 1525.96875 L 2008.03125 1529.320312 L 2003.039062 1532.539062 L 1997.988281 1535.628906 L 1992.878906 1538.609375 L 1987.710938 1541.46875 L 1982.46875 1544.230469 L 1977.179688 1546.890625 L 1971.828125 1549.449219 L 1966.421875 1551.929688 L 1955.449219 1556.628906 L 1944.28125 1561.050781 L 1932.921875 1565.210938 L 1933.089844 1564.621094 L 1936.628906 1551.25 L 1939.941406 1537.828125 L 1945.839844 1510.828125 L 1950.808594 1483.691406 L 1970.910156 1437.558594 L 1990.308594 1389.941406 L 2008.621094 1341.148438 L 2025.449219 1291.480469 L 2026.671875 1287.53125 L 2028.28125 1287.140625 L 2032.710938 1286.101562 L 2037.21875 1285.140625 L 2041.789062 1284.25 L 2046.378906 1283.46875 L 2050.988281 1282.800781 L 2055.589844 1282.25 L 2060.148438 1281.839844 L 2064.648438 1281.578125 L 2066.878906 1281.511719 L 2069.078125 1281.480469 L 2071.261719 1281.5 L 2073.410156 1281.570312 L 2075.53125 1281.679688 L 2077.609375 1281.839844 L 2079.660156 1282.050781 L 2081.671875 1282.320312 L 2083.640625 1282.628906 L 2085.570312 1283.011719 L 2086.511719 1283.21875 L 2087.449219 1283.441406 L 2088.371094 1283.679688 L 2089.269531 1283.941406 L 2090.171875 1284.199219 L 2091.050781 1284.488281 L 2091.921875 1284.789062 L 2092.769531 1285.101562 L 2093.609375 1285.441406 L 2094.429688 1285.789062 L 2095.238281 1286.148438 L 2096.039062 1286.53125 L 2096.941406 1287 L 2097.820312 1287.480469 L 2098.679688 1288 L 2099.519531 1288.53125 L 2100.339844 1289.078125 L 2101.140625 1289.660156 L 2101.921875 1290.261719 L 2102.671875 1290.878906 L 2103.410156 1291.519531 L 2104.128906 1292.179688 L 2104.820312 1292.859375 L 2105.5 1293.558594 L 2106.160156 1294.28125 L 2106.789062 1295.019531 L 2107.410156 1295.78125 L 2108.011719 1296.558594 L 2108.589844 1297.359375 L 2109.140625 1298.171875 L 2109.679688 1299.011719 L 2110.210938 1299.859375 L 2110.710938 1300.730469 L 2111.191406 1301.621094 L 2111.660156 1302.519531 L 2112.101562 1303.449219 L 2112.53125 1304.390625 L 2112.941406 1305.339844 L 2113.339844 1306.320312 L 2113.710938 1307.308594 L 2114.070312 1308.308594 L 2114.410156 1309.328125 L 2114.730469 1310.371094 L 2115.039062 1311.421875 L 2115.320312 1312.480469 L 2115.589844 1313.558594 L 2116.089844 1315.769531 L 2116.511719 1318.019531 L 2116.871094 1320.339844 L 2117.171875 1322.699219 L 2117.398438 1325.109375 L 2117.570312 1327.570312 L 2117.679688 1330.078125 L 2117.730469 1332.621094 "/>
<path fill-rule="nonzero" fill="rgb(0%, 0%, 0%)" fill-opacity="1" d="M 1407.019531 2442.78125 L 1425.878906 2517.601562 L 1385.859375 2694.640625 C 1091.539062 2666.871094 828.160156 2532.800781 634.519531 2331.230469 L 639.710938 2309.390625 L 641.230469 2303.410156 L 642.941406 2297.460938 L 644.828125 2291.539062 L 646.921875 2285.648438 L 649.191406 2279.800781 L 651.648438 2273.980469 L 654.300781 2268.199219 L 657.140625 2262.460938 L 660.179688 2256.761719 L 663.410156 2251.109375 L 666.828125 2245.488281 L 670.441406 2239.921875 L 674.238281 2234.390625 L 678.238281 2228.910156 L 682.429688 2223.480469 L 686.808594 2218.089844 L 691.390625 2212.761719 L 696.160156 2207.46875 L 701.121094 2202.25 L 706.269531 2197.070312 L 711.621094 2191.949219 L 717.160156 2186.878906 L 722.890625 2181.871094 L 728.800781 2176.921875 L 734.910156 2172.03125 L 741.210938 2167.199219 L 747.699219 2162.429688 L 754.371094 2157.730469 L 761.21875 2153.089844 L 768.269531 2148.511719 L 775.5 2144 L 782.898438 2139.550781 L 798.269531 2130.871094 L 814.339844 2122.460938 L 831.121094 2114.328125 L 848.589844 2106.5 L 866.730469 2098.960938 L 885.53125 2091.71875 L 904.96875 2084.789062 L 925.03125 2078.160156 L 945.710938 2071.859375 L 966.96875 2065.871094 L 988.789062 2060.199219 L 1011.171875 2054.851562 L 1034.070312 2049.828125 L 1057.46875 2045.128906 L 1105.699219 2036.71875 L 1314.039062 2539.03125 L 1407.019531 2442.78125 "/>
<path fill-rule="nonzero" fill="rgb(0%, 0%, 0%)" fill-opacity="1" d="M 2360.289062 2309.390625 L 2365.480469 2331.230469 C 2171.839844 2532.800781 1908.460938 2666.871094 1614.140625 2694.640625 L 1574.121094 2517.601562 L 1592.980469 2442.78125 L 1685.960938 2539.03125 L 1894.300781 2036.71875 L 1942.53125 2045.128906 L 1965.929688 2049.828125 L 1988.828125 2054.851562 L 2011.210938 2060.199219 L 2033.03125 2065.871094 L 2054.289062 2071.859375 L 2074.96875 2078.160156 L 2095.03125 2084.789062 L 2114.46875 2091.71875 L 2133.269531 2098.960938 L 2151.410156 2106.5 L 2168.878906 2114.328125 L 2185.660156 2122.460938 L 2201.730469 2130.871094 L 2217.101562 2139.550781 L 2224.5 2144 L 2231.730469 2148.511719 L 2238.78125 2153.089844 L 2245.628906 2157.730469 L 2252.300781 2162.429688 L 2258.789062 2167.199219 L 2265.089844 2172.03125 L 2271.199219 2176.921875 L 2277.109375 2181.871094 L 2282.839844 2186.878906 L 2288.378906 2191.949219 L 2293.730469 2197.070312 L 2298.878906 2202.25 L 2303.839844 2207.46875 L 2308.609375 2212.761719 L 2313.191406 2218.089844 L 2317.570312 2223.480469 L 2321.761719 2228.910156 L 2325.761719 2234.390625 L 2329.558594 2239.921875 L 2333.171875 2245.488281 L 2336.589844 2251.109375 L 2339.820312 2256.761719 L 2342.859375 2262.460938 L 2345.699219 2268.199219 L 2348.351562 2273.980469 L 2350.808594 2279.800781 L 2353.078125 2285.648438 L 2355.171875 2291.539062 L 2357.058594 2297.460938 L 2358.769531 2303.410156 L 2360.289062 2309.390625 "/>
<path fill-rule="nonzero" fill="rgb(75.78125%, 8.616638%, 8.616638%)" fill-opacity="1" d="M 1574.121094 2517.601562 L 1614.140625 2694.640625 C 1576.570312 2698.191406 1538.5 2700 1500 2700 C 1461.5 2700 1423.429688 2698.191406 1385.859375 2694.640625 L 1425.878906 2517.601562 L 1574.121094 2517.601562 "/>
<path fill-rule="nonzero" fill="rgb(70.896912%, 8.616638%, 8.616638%)" fill-opacity="1" d="M 1500 2346.53125 L 1592.980469 2442.78125 L 1574.121094 2517.601562 L 1425.878906 2517.601562 L 1407.019531 2442.78125 L 1500 2346.53125 "/>
<path fill-rule="nonzero" fill="rgb(75.78125%, 75.78125%, 75.78125%)" fill-opacity="1" d="M 1833.789062 1958.390625 L 1894.300781 2036.71875 L 1685.960938 2539.03125 L 1500 2346.53125 L 1775.089844 2026.648438 L 1833.789062 1958.390625 "/>
<path fill-rule="nonzero" fill="rgb(41.967773%, 41.967773%, 41.967773%)" fill-opacity="1" d="M 1833.789062 1958.390625 L 1775.089844 2026.648438 L 1768.171875 1944.320312 L 1833.789062 1958.390625 "/>
<path fill-rule="nonzero" fill="rgb(75.78125%, 75.78125%, 75.78125%)" fill-opacity="1" d="M 1224.910156 2026.648438 L 1500 2346.53125 L 1314.039062 2539.03125 L 1105.699219 2036.71875 L 1166.210938 1958.390625 L 1224.910156 2026.648438 "/>
<path fill-rule="nonzero" fill="rgb(41.967773%, 41.967773%, 41.967773%)" fill-opacity="1" d="M 1231.828125 1944.320312 L 1224.910156 2026.648438 L 1166.210938 1958.390625 Z M 1231.828125 1944.320312 "/>
<path fill-rule="nonzero" fill="rgb(84.764099%, 70.896912%, 46.655273%)" fill-opacity="1" d="M 1768.171875 1944.320312 L 1775.089844 2026.648438 L 1500 2346.53125 L 1224.910156 2026.648438 L 1231.828125 1944.320312 L 1238.75 1861.980469 L 1238.789062 1861.941406 L 1243.761719 1867.089844 L 1259.269531 1882.328125 L 1275.199219 1897.160156 L 1291.511719 1911.558594 L 1308.179688 1925.519531 L 1325.179688 1939.039062 L 1342.511719 1952.109375 C 1436.210938 2020.96875 1563.789062 2020.96875 1657.488281 1952.109375 L 1674.820312 1939.039062 L 1691.820312 1925.519531 L 1708.488281 1911.558594 L 1724.800781 1897.160156 L 1740.730469 1882.328125 L 1756.238281 1867.089844 L 1761.210938 1861.941406 L 1761.25 1861.980469 L 1768.171875 1944.320312 "/>
<path fill-rule="nonzero" fill="rgb(37.646484%, 37.646484%, 37.646484%)" fill-opacity="1" d="M 1774.820312 2023.480469 L 1768.171875 1944.320312 L 1774.820312 2023.480469 "/>
<path fill-rule="nonzero" fill="rgb(76.171875%, 63.867188%, 41.967773%)" fill-opacity="1" d="M 1580 2104.238281 C 1524.679688 2104.238281 1469.359375 2087.019531 1422.511719 2052.589844 L 1405.179688 2039.519531 L 1388.179688 2026 L 1371.511719 2012.039062 L 1355.199219 1997.640625 L 1339.269531 1982.808594 L 1323.761719 1967.570312 L 1318.789062 1962.421875 L 1308.679688 1951.921875 L 1294.058594 1935.859375 L 1279.921875 1919.410156 L 1266.289062 1902.578125 L 1253.191406 1885.378906 L 1240.640625 1867.808594 L 1238.53125 1864.640625 L 1238.75 1861.980469 L 1238.789062 1861.941406 L 1243.761719 1867.089844 L 1259.269531 1882.328125 L 1275.199219 1897.160156 L 1291.511719 1911.558594 L 1308.179688 1925.519531 L 1325.179688 1939.039062 L 1342.511719 1952.109375 C 1389.359375 1986.539062 1444.679688 2003.75 1500 2003.75 C 1555.320312 2003.75 1610.640625 1986.539062 1657.488281 1952.109375 L 1674.820312 1939.039062 L 1691.820312 1925.519531 L 1708.488281 1911.558594 L 1724.800781 1897.160156 L 1740.730469 1882.328125 L 1756.238281 1867.089844 L 1761.210938 1861.941406 L 1761.25 1861.980469 L 1768.171875 1944.320312 L 1774.820312 2023.480469 L 1771.820312 2026 L 1754.820312 2039.519531 L 1737.488281 2052.589844 C 1690.640625 2087.019531 1635.320312 2104.238281 1580 2104.238281 "/>
</svg>
